# xmcd
#
# Track frame offsets: 
#        150
#        19677
#        35951
#        51486
#        65587
#        83843
#        102240
#        122451
#        141095
#        158611
#        174990
#        194299
#        216014
#        236470
#        251828
#        268903
#        287403
#        301251
#        320843
#        337715
#
# Disc length: 4754 seconds
#
# Revision: 0
# Processed by: cddbd v1.5.2PL0 Copyright (c) Steve Scherf et al.
# Submitted via: ExactAudioCopyFreeDBPlugin 1.0
#
DISCID=1e129014
DTITLE=Virus - Virus
DYEAR=2000
DGENRE=Dance
TTITLE0=Vesna
TTITLE1=Papa
TTITLE2=Vsie Proidiot
TTITLE3=Rucki
TTITLE4=Nozki
TTITLE5=Bez Liubvi
TTITLE6=Day Mnie
TTITLE7=Igra
TTITLE8=Mama
TTITLE9=Pismo
TTITLE10=Ja Ne Liubliu
TTITLE11=Ti Menia Ne Ishi
TTITLE12=Pomogi
TTITLE13=Virus A
TTITLE14=Virus B
TTITLE15=Kap Kap
TTITLE16=Nezhoe Solnishko
TTITLE17=Ja Ne Mogu
TTITLE18=Vsie Proidiot (remix)
TTITLE19=Rucki (remix)
EXTD=
EXTT0=
EXTT1=
EXTT2=
EXTT3=
EXTT4=
EXTT5=
EXTT6=
EXTT7=
EXTT8=
EXTT9=
EXTT10=
EXTT11=
EXTT12=
EXTT13=
EXTT14=
EXTT15=
EXTT16=
EXTT17=
EXTT18=
EXTT19=
PLAYORDER=
